<?xml version="1.0" encoding="utf-8"?>
<svg id="Layer_1" data-name="Layer 1" viewBox="0 0 64 64" xmlns="http://www.w3.org/2000/svg">
  <defs>
    <style>.cls-1{fill:#5c2d91;}.cls-2,.cls-3{fill:#fff;}.cls-2{opacity:0.1;}.cls-4{fill:#f2f2f2;}</style>
  </defs>
  <title>pulsar-client-dotnet</title>
  <circle class="cls-1" cx="32" cy="32" r="32"/>
  <path class="cls-2" d="M9.82,9A32,32,0,1,0,55,54.18Z"/>
  <path d="M 63.868 23.114 L 48.343 23.114 C 44.146 14.945 39.711 8.604 33.671 8.604 C 25.809 8.604 22.113 15.568 18.541 22.342 L 18.229 22.934 L 0.35 22.934 L 0.35 26.961 L 10.763 26.961 C 14.438 26.961 15.189 28.218 15.189 28.218 C 12.304 32.762 8.837 37.254 3.057 37.254 L 0.35 37.254 L 0.35 41.481 L 3.078 41.481 C 14.283 41.481 19.176 32.255 23.102 24.847 C 26.705 18.02 29.214 13.888 33.671 13.888 C 38.294 13.888 43.157 24.096 47.437 33.112 C 48.061 34.422 48.697 35.764 49.343 37.095 C 32.932 37.624 25.111 41.524 18.749 44.704 C 14.095 47.03 10.419 49.914 4.369 49.914 L 0.35 49.914 L 0.35 54.142 L 4.338 54.142 C 11.627 54.142 16.167 51.859 20.999 49.439 C 27.694 46.1 35.285 42.316 53.174 42.316 L 63.514 42.316 L 63.514 38.089 L 57.672 38.089 C 56.699 38.163 55.748 37.772 55.1 37.032 C 54.08 35.025 53.081 32.911 52.102 30.797 L 50.748 27.986 C 50.748 27.986 51.717 26.929 54.403 26.929 L 63.868 26.929 Z" fill="#ffffff" style=""/>
</svg>